<mxfile host="app.diagrams.net" modified="2021-06-08T08:56:59.271Z" agent="5.0 (Windows NT 10.0; Win64; x64) AppleWebKit/537.36 (KHTML, like Gecko) Chrome/91.0.4472.77 Safari/537.36" etag="1JdKnnXin-Zn3NAspx3M" version="14.7.6" type="github">
  <diagram id="YDqGP3bFueeBZQlD4i-J" name="Page-1">
    <mxGraphModel dx="1102" dy="582" grid="1" gridSize="10" guides="1" tooltips="1" connect="1" arrows="1" fold="1" page="1" pageScale="1" pageWidth="827" pageHeight="1169" math="0" shadow="0">
      <root>
        <mxCell id="0" />
        <mxCell id="1" parent="0" />
        <mxCell id="sN-sazcjAGK7p62X-x23-19" style="edgeStyle=orthogonalEdgeStyle;rounded=0;orthogonalLoop=1;jettySize=auto;html=1;entryX=-0.007;entryY=0.371;entryDx=0;entryDy=0;entryPerimeter=0;" edge="1" parent="1" source="sN-sazcjAGK7p62X-x23-5" target="sN-sazcjAGK7p62X-x23-15">
          <mxGeometry relative="1" as="geometry">
            <Array as="points">
              <mxPoint x="280" y="160" />
              <mxPoint x="280" y="46" />
            </Array>
          </mxGeometry>
        </mxCell>
        <mxCell id="sN-sazcjAGK7p62X-x23-20" style="edgeStyle=orthogonalEdgeStyle;rounded=0;orthogonalLoop=1;jettySize=auto;html=1;entryX=0;entryY=1;entryDx=0;entryDy=0;" edge="1" parent="1" source="sN-sazcjAGK7p62X-x23-5" target="sN-sazcjAGK7p62X-x23-11">
          <mxGeometry relative="1" as="geometry">
            <Array as="points">
              <mxPoint x="250" y="160" />
              <mxPoint x="250" y="160" />
            </Array>
          </mxGeometry>
        </mxCell>
        <mxCell id="sN-sazcjAGK7p62X-x23-21" style="edgeStyle=orthogonalEdgeStyle;rounded=0;orthogonalLoop=1;jettySize=auto;html=1;entryX=0;entryY=0.5;entryDx=0;entryDy=0;" edge="1" parent="1" source="sN-sazcjAGK7p62X-x23-5" target="sN-sazcjAGK7p62X-x23-18">
          <mxGeometry relative="1" as="geometry">
            <Array as="points">
              <mxPoint x="280" y="160" />
              <mxPoint x="280" y="235" />
            </Array>
          </mxGeometry>
        </mxCell>
        <mxCell id="sN-sazcjAGK7p62X-x23-5" value="Guest" style="shape=umlActor;verticalLabelPosition=bottom;verticalAlign=top;html=1;" vertex="1" parent="1">
          <mxGeometry x="130" y="125" width="40" height="60" as="geometry" />
        </mxCell>
        <mxCell id="sN-sazcjAGK7p62X-x23-32" style="edgeStyle=orthogonalEdgeStyle;rounded=0;orthogonalLoop=1;jettySize=auto;html=1;" edge="1" parent="1" source="sN-sazcjAGK7p62X-x23-9" target="sN-sazcjAGK7p62X-x23-12">
          <mxGeometry relative="1" as="geometry" />
        </mxCell>
        <mxCell id="sN-sazcjAGK7p62X-x23-33" style="edgeStyle=orthogonalEdgeStyle;rounded=0;orthogonalLoop=1;jettySize=auto;html=1;" edge="1" parent="1" source="sN-sazcjAGK7p62X-x23-9" target="sN-sazcjAGK7p62X-x23-14">
          <mxGeometry relative="1" as="geometry" />
        </mxCell>
        <mxCell id="sN-sazcjAGK7p62X-x23-9" value="Customer" style="shape=umlActor;verticalLabelPosition=bottom;verticalAlign=top;html=1;" vertex="1" parent="1">
          <mxGeometry x="130" y="310" width="50" height="60" as="geometry" />
        </mxCell>
        <mxCell id="sN-sazcjAGK7p62X-x23-11" value="Xem trang chủ" style="ellipse;whiteSpace=wrap;html=1;" vertex="1" parent="1">
          <mxGeometry x="380" y="120" width="140" height="70" as="geometry" />
        </mxCell>
        <mxCell id="sN-sazcjAGK7p62X-x23-12" value="Xem chi tiết sản phẩm đươc chọn" style="ellipse;whiteSpace=wrap;html=1;" vertex="1" parent="1">
          <mxGeometry x="380" y="280" width="140" height="70" as="geometry" />
        </mxCell>
        <mxCell id="sN-sazcjAGK7p62X-x23-13" value="Mua hàng" style="ellipse;whiteSpace=wrap;html=1;" vertex="1" parent="1">
          <mxGeometry x="380" y="480" width="140" height="70" as="geometry" />
        </mxCell>
        <mxCell id="sN-sazcjAGK7p62X-x23-14" value="Quản lý giỏ hàng" style="ellipse;whiteSpace=wrap;html=1;" vertex="1" parent="1">
          <mxGeometry x="380" y="370" width="140" height="80" as="geometry" />
        </mxCell>
        <mxCell id="sN-sazcjAGK7p62X-x23-15" value="Đăng ký&amp;nbsp;" style="ellipse;whiteSpace=wrap;html=1;" vertex="1" parent="1">
          <mxGeometry x="370" y="20" width="140" height="70" as="geometry" />
        </mxCell>
        <mxCell id="sN-sazcjAGK7p62X-x23-16" value="Đăng nhập" style="ellipse;whiteSpace=wrap;html=1;" vertex="1" parent="1">
          <mxGeometry x="600" y="200" width="140" height="70" as="geometry" />
        </mxCell>
        <mxCell id="sN-sazcjAGK7p62X-x23-17" value="Đăng xuất" style="ellipse;whiteSpace=wrap;html=1;" vertex="1" parent="1">
          <mxGeometry x="600" y="360" width="140" height="70" as="geometry" />
        </mxCell>
        <mxCell id="sN-sazcjAGK7p62X-x23-18" value="Xem sản phẩm" style="ellipse;whiteSpace=wrap;html=1;" vertex="1" parent="1">
          <mxGeometry x="380" y="200" width="140" height="70" as="geometry" />
        </mxCell>
        <mxCell id="sN-sazcjAGK7p62X-x23-26" value="" style="endArrow=block;dashed=1;endFill=0;endSize=12;html=1;entryX=0;entryY=1;entryDx=0;entryDy=0;" edge="1" parent="1" target="sN-sazcjAGK7p62X-x23-16">
          <mxGeometry width="160" relative="1" as="geometry">
            <mxPoint x="500" y="380" as="sourcePoint" />
            <mxPoint x="660" y="380" as="targetPoint" />
          </mxGeometry>
        </mxCell>
        <mxCell id="sN-sazcjAGK7p62X-x23-28" value="" style="endArrow=block;dashed=1;endFill=0;endSize=12;html=1;exitX=0.5;exitY=1;exitDx=0;exitDy=0;" edge="1" parent="1" source="sN-sazcjAGK7p62X-x23-16">
          <mxGeometry width="160" relative="1" as="geometry">
            <mxPoint x="490" y="290" as="sourcePoint" />
            <mxPoint x="670" y="360" as="targetPoint" />
            <Array as="points">
              <mxPoint x="670" y="340" />
            </Array>
          </mxGeometry>
        </mxCell>
        <mxCell id="sN-sazcjAGK7p62X-x23-30" value="" style="endArrow=block;dashed=1;endFill=0;endSize=12;html=1;exitX=1;exitY=0.414;exitDx=0;exitDy=0;exitPerimeter=0;" edge="1" parent="1" source="sN-sazcjAGK7p62X-x23-13">
          <mxGeometry width="160" relative="1" as="geometry">
            <mxPoint x="490" y="430" as="sourcePoint" />
            <mxPoint x="660" y="430.5" as="targetPoint" />
            <Array as="points">
              <mxPoint x="570" y="510" />
              <mxPoint x="660" y="510" />
            </Array>
          </mxGeometry>
        </mxCell>
        <mxCell id="sN-sazcjAGK7p62X-x23-34" value="Extends" style="endArrow=block;endSize=16;endFill=0;html=1;entryX=0.5;entryY=0;entryDx=0;entryDy=0;entryPerimeter=0;" edge="1" parent="1" target="sN-sazcjAGK7p62X-x23-9">
          <mxGeometry width="160" relative="1" as="geometry">
            <mxPoint x="155" y="210" as="sourcePoint" />
            <mxPoint x="250" y="234.5" as="targetPoint" />
            <Array as="points">
              <mxPoint x="155" y="220" />
            </Array>
          </mxGeometry>
        </mxCell>
        <mxCell id="sN-sazcjAGK7p62X-x23-58" value="" style="endArrow=block;dashed=1;endFill=0;endSize=12;html=1;exitX=0.5;exitY=0;exitDx=0;exitDy=0;" edge="1" parent="1" source="sN-sazcjAGK7p62X-x23-16">
          <mxGeometry width="160" relative="1" as="geometry">
            <mxPoint x="667" y="185" as="sourcePoint" />
            <mxPoint x="510" y="66" as="targetPoint" />
          </mxGeometry>
        </mxCell>
        <mxCell id="sN-sazcjAGK7p62X-x23-60" value="&amp;lt;include&amp;gt;" style="text;html=1;strokeColor=none;fillColor=none;align=center;verticalAlign=middle;whiteSpace=wrap;rounded=0;rotation=-45;" vertex="1" parent="1">
          <mxGeometry x="520" y="305" width="70" height="20" as="geometry" />
        </mxCell>
        <mxCell id="sN-sazcjAGK7p62X-x23-61" value="&amp;lt;extend&amp;gt;" style="text;html=1;strokeColor=none;fillColor=none;align=center;verticalAlign=middle;whiteSpace=wrap;rounded=0;" vertex="1" parent="1">
          <mxGeometry x="680" y="297.5" width="40" height="35" as="geometry" />
        </mxCell>
        <mxCell id="sN-sazcjAGK7p62X-x23-64" value="&amp;lt;include&amp;gt;" style="text;html=1;strokeColor=none;fillColor=none;align=center;verticalAlign=middle;whiteSpace=wrap;rounded=0;rotation=45;" vertex="1" parent="1">
          <mxGeometry x="576.8198051533947" y="111.81980515339461" width="70" height="20" as="geometry" />
        </mxCell>
      </root>
    </mxGraphModel>
  </diagram>
</mxfile>
